<svg aria-roledescription="er" role="graphics-document document" viewBox="0 0 603.73828125 554" style="max-width: 603.738px; background-color: rgb(255, 255, 255);" xmlns:xlink="http://www.w3.org/1999/xlink" xmlns="http://www.w3.org/2000/svg" width="100%" id="mermaid-1686026118740"><style>#mermaid-1686026118740{font-family:"trebuchet ms",verdana,arial,sans-serif;font-size:16px;fill:#333;}#mermaid-1686026118740 .error-icon{fill:#552222;}#mermaid-1686026118740 .error-text{fill:#552222;stroke:#552222;}#mermaid-1686026118740 .edge-thickness-normal{stroke-width:2px;}#mermaid-1686026118740 .edge-thickness-thick{stroke-width:3.5px;}#mermaid-1686026118740 .edge-pattern-solid{stroke-dasharray:0;}#mermaid-1686026118740 .edge-pattern-dashed{stroke-dasharray:3;}#mermaid-1686026118740 .edge-pattern-dotted{stroke-dasharray:2;}#mermaid-1686026118740 .marker{fill:#333333;stroke:#333333;}#mermaid-1686026118740 .marker.cross{stroke:#333333;}#mermaid-1686026118740 svg{font-family:"trebuchet ms",verdana,arial,sans-serif;font-size:16px;}#mermaid-1686026118740 .entityBox{fill:#ECECFF;stroke:#9370DB;}#mermaid-1686026118740 .attributeBoxOdd{fill:#ffffff;stroke:#9370DB;}#mermaid-1686026118740 .attributeBoxEven{fill:#f2f2f2;stroke:#9370DB;}#mermaid-1686026118740 .relationshipLabelBox{fill:hsl(80, 100%, 96.2745098039%);opacity:0.7;background-color:hsl(80, 100%, 96.2745098039%);}#mermaid-1686026118740 .relationshipLabelBox rect{opacity:0.5;}#mermaid-1686026118740 .relationshipLine{stroke:#333333;}#mermaid-1686026118740 .entityTitleText{text-anchor:middle;font-size:18px;fill:#333;}#mermaid-1686026118740 :root{--mermaid-font-family:"trebuchet ms",verdana,arial,sans-serif;}</style><g/><defs><marker orient="auto" markerHeight="18" markerWidth="18" refY="9" refX="0" id="ONLY_ONE_START"><path d="M9,0 L9,18 M15,0 L15,18" fill="none" stroke="gray"/></marker></defs><defs><marker orient="auto" markerHeight="18" markerWidth="18" refY="9" refX="18" id="ONLY_ONE_END"><path d="M3,0 L3,18 M9,0 L9,18" fill="none" stroke="gray"/></marker></defs><defs><marker orient="auto" markerHeight="18" markerWidth="30" refY="9" refX="0" id="ZERO_OR_ONE_START"><circle r="6" cy="9" cx="21" fill="white" stroke="gray"/><path d="M9,0 L9,18" fill="none" stroke="gray"/></marker></defs><defs><marker orient="auto" markerHeight="18" markerWidth="30" refY="9" refX="30" id="ZERO_OR_ONE_END"><circle r="6" cy="9" cx="9" fill="white" stroke="gray"/><path d="M21,0 L21,18" fill="none" stroke="gray"/></marker></defs><defs><marker orient="auto" markerHeight="36" markerWidth="45" refY="18" refX="18" id="ONE_OR_MORE_START"><path d="M0,18 Q 18,0 36,18 Q 18,36 0,18 M42,9 L42,27" fill="none" stroke="gray"/></marker></defs><defs><marker orient="auto" markerHeight="36" markerWidth="45" refY="18" refX="27" id="ONE_OR_MORE_END"><path d="M3,9 L3,27 M9,18 Q27,0 45,18 Q27,36 9,18" fill="none" stroke="gray"/></marker></defs><defs><marker orient="auto" markerHeight="36" markerWidth="57" refY="18" refX="18" id="ZERO_OR_MORE_START"><circle r="6" cy="18" cx="48" fill="white" stroke="gray"/><path d="M0,18 Q18,0 36,18 Q18,36 0,18" fill="none" stroke="gray"/></marker></defs><defs><marker orient="auto" markerHeight="36" markerWidth="57" refY="18" refX="39" id="ZERO_OR_MORE_END"><circle r="6" cy="18" cx="9" fill="white" stroke="gray"/><path d="M21,18 Q39,0 57,18 Q39,36 21,18" fill="none" stroke="gray"/></marker></defs><path style="stroke: gray; fill: none;" marker-start="url(#ZERO_OR_MORE_START)" marker-end="url(#ONLY_ONE_END)" d="M149.73764038085938,110L149.73764038085938,118.33333333333333C149.73764038085938,126.66666666666667,149.73764038085938,143.33333333333334,149.73764038085938,160C149.73764038085938,176.66666666666666,149.73764038085938,193.33333333333334,149.73764038085938,201.66666666666666L149.73764038085938,210" class="er relationshipLine"/><path style="stroke: gray; fill: none;" marker-start="url(#ZERO_OR_MORE_START)" marker-end="url(#ONLY_ONE_END)" d="M149.73764038085938,322L149.73764038085938,330.3333333333333C149.73764038085938,338.6666666666667,149.73764038085938,355.3333333333333,162.78281160270643,372C175.8279828245535,388.6666666666667,201.9183252682476,405.3333333333333,214.96349649009463,413.6666666666667L228.0086677119417,422" class="er relationshipLine"/><path style="stroke: gray; fill: none;" marker-start="url(#ZERO_OR_MORE_START)" marker-end="url(#ONLY_ONE_END)" d="M481.60679626464844,311L481.60679626464844,321.1666666666667C481.60679626464844,331.3333333333333,481.60679626464844,351.6666666666667,468.5616250428014,370.1666666666667C455.5164538209544,388.6666666666667,429.4261113772602,405.3333333333333,416.38094015541316,413.6666666666667L403.3357689335661,422" class="er relationshipLine"/><g transform="translate(67.38407135009766,20 )" id="entity-users-33ae1e26-be31-5c1d-bf65-e859e9d0308e"><rect height="90" width="164.70713806152344" y="0" x="0" class="er entityBox"/><text style="dominant-baseline: middle; text-anchor: middle; font-size: 12px;" transform="translate(82.35356903076172,12)" y="0" x="0" id="text-entity-users-33ae1e26-be31-5c1d-bf65-e859e9d0308e" class="er entityLabel">users</text><rect height="22" width="63.70890808105469" y="24" x="0" class="er attributeBoxOdd"/><text style="dominant-baseline: middle; font-size: 10.2px;" transform="translate(5,35)" y="0" x="0" id="text-entity-users-33ae1e26-be31-5c1d-bf65-e859e9d0308e-attr-1-type" class="er entityLabel">varchar(50)</text><rect height="22" width="78.310546875" y="24" x="63.70890808105469" class="er attributeBoxOdd"/><text style="dominant-baseline: middle; font-size: 10.2px;" transform="translate(68.70890808105469,35)" y="0" x="0" id="text-entity-users-33ae1e26-be31-5c1d-bf65-e859e9d0308e-attr-1-name" class="er entityLabel">id_card</text><rect height="22" width="22.68768310546875" y="24" x="142.0194549560547" class="er attributeBoxOdd"/><text style="dominant-baseline: middle; font-size: 10.2px;" transform="translate(147.0194549560547,35)" y="0" x="0" id="text-entity-users-33ae1e26-be31-5c1d-bf65-e859e9d0308e-attr-1-key" class="er entityLabel">PK</text><rect height="22" width="63.70890808105469" y="46" x="0" class="er attributeBoxEven"/><text style="dominant-baseline: middle; font-size: 10.2px;" transform="translate(5,57)" y="0" x="0" id="text-entity-users-33ae1e26-be31-5c1d-bf65-e859e9d0308e-attr-2-type" class="er entityLabel">varcahr</text><rect height="22" width="78.310546875" y="46" x="63.70890808105469" class="er attributeBoxEven"/><text style="dominant-baseline: middle; font-size: 10.2px;" transform="translate(68.70890808105469,57)" y="0" x="0" id="text-entity-users-33ae1e26-be31-5c1d-bf65-e859e9d0308e-attr-2-name" class="er entityLabel">name_user</text><rect height="22" width="22.68768310546875" y="46" x="142.0194549560547" class="er attributeBoxEven"/><text style="dominant-baseline: middle; font-size: 10.2px;" transform="translate(147.0194549560547,57)" y="0" x="0" id="text-entity-users-33ae1e26-be31-5c1d-bf65-e859e9d0308e-attr-2-key" class="er entityLabel"/><rect height="22" width="63.70890808105469" y="68" x="0" class="er attributeBoxOdd"/><text style="dominant-baseline: middle; font-size: 10.2px;" transform="translate(5,79)" y="0" x="0" id="text-entity-users-33ae1e26-be31-5c1d-bf65-e859e9d0308e-attr-3-type" class="er entityLabel">varchar</text><rect height="22" width="78.310546875" y="68" x="63.70890808105469" class="er attributeBoxOdd"/><text style="dominant-baseline: middle; font-size: 10.2px;" transform="translate(68.70890808105469,79)" y="0" x="0" id="text-entity-users-33ae1e26-be31-5c1d-bf65-e859e9d0308e-attr-3-name" class="er entityLabel">hash_password</text><rect height="22" width="22.68768310546875" y="68" x="142.0194549560547" class="er attributeBoxOdd"/><text style="dominant-baseline: middle; font-size: 10.2px;" transform="translate(147.0194549560547,79)" y="0" x="0" id="text-entity-users-33ae1e26-be31-5c1d-bf65-e859e9d0308e-attr-3-key" class="er entityLabel"/></g><g transform="translate(20,210 )" id="entity-accounts-63517279-e5db-51fd-8103-6411c1455933"><rect height="112" width="259.4752655029297" y="0" x="0" class="er entityBox"/><text style="dominant-baseline: middle; text-anchor: middle; font-size: 12px;" transform="translate(129.73763275146484,12)" y="0" x="0" id="text-entity-accounts-63517279-e5db-51fd-8103-6411c1455933" class="er entityLabel">accounts</text><rect height="22" width="63.70890808105469" y="24" x="0" class="er attributeBoxOdd"/><text style="dominant-baseline: middle; font-size: 10.2px;" transform="translate(5,35)" y="0" x="0" id="text-entity-accounts-63517279-e5db-51fd-8103-6411c1455933-attr-1-type" class="er entityLabel">int</text><rect height="22" width="79.37638854980469" y="24" x="63.70890808105469" class="er attributeBoxOdd"/><text style="dominant-baseline: middle; font-size: 10.2px;" transform="translate(68.70890808105469,35)" y="0" x="0" id="text-entity-accounts-63517279-e5db-51fd-8103-6411c1455933-attr-1-name" class="er entityLabel">id_accouts</text><rect height="22" width="22.68768310546875" y="24" x="143.08529663085938" class="er attributeBoxOdd"/><text style="dominant-baseline: middle; font-size: 10.2px;" transform="translate(148.08529663085938,35)" y="0" x="0" id="text-entity-accounts-63517279-e5db-51fd-8103-6411c1455933-attr-1-key" class="er entityLabel">PK</text><rect height="22" width="93.70228576660156" y="24" x="165.77297973632812" class="er attributeBoxOdd"/><text style="dominant-baseline: middle; font-size: 10.2px;" transform="translate(170.77297973632812,35)" y="0" x="0" id="text-entity-accounts-63517279-e5db-51fd-8103-6411c1455933-attr-1-comment" class="er entityLabel"/><rect height="22" width="63.70890808105469" y="46" x="0" class="er attributeBoxEven"/><text style="dominant-baseline: middle; font-size: 10.2px;" transform="translate(5,57)" y="0" x="0" id="text-entity-accounts-63517279-e5db-51fd-8103-6411c1455933-attr-2-type" class="er entityLabel">varchar(50)</text><rect height="22" width="79.37638854980469" y="46" x="63.70890808105469" class="er attributeBoxEven"/><text style="dominant-baseline: middle; font-size: 10.2px;" transform="translate(68.70890808105469,57)" y="0" x="0" id="text-entity-accounts-63517279-e5db-51fd-8103-6411c1455933-attr-2-name" class="er entityLabel">id_user</text><rect height="22" width="22.68768310546875" y="46" x="143.08529663085938" class="er attributeBoxEven"/><text style="dominant-baseline: middle; font-size: 10.2px;" transform="translate(148.08529663085938,57)" y="0" x="0" id="text-entity-accounts-63517279-e5db-51fd-8103-6411c1455933-attr-2-key" class="er entityLabel">FK</text><rect height="22" width="93.70228576660156" y="46" x="165.77297973632812" class="er attributeBoxEven"/><text style="dominant-baseline: middle; font-size: 10.2px;" transform="translate(170.77297973632812,57)" y="0" x="0" id="text-entity-accounts-63517279-e5db-51fd-8103-6411c1455933-attr-2-comment" class="er entityLabel">Ref:users(id_card)</text><rect height="22" width="63.70890808105469" y="68" x="0" class="er attributeBoxOdd"/><text style="dominant-baseline: middle; font-size: 10.2px;" transform="translate(5,79)" y="0" x="0" id="text-entity-accounts-63517279-e5db-51fd-8103-6411c1455933-attr-3-type" class="er entityLabel">varchar(50)</text><rect height="22" width="79.37638854980469" y="68" x="63.70890808105469" class="er attributeBoxOdd"/><text style="dominant-baseline: middle; font-size: 10.2px;" transform="translate(68.70890808105469,79)" y="0" x="0" id="text-entity-accounts-63517279-e5db-51fd-8103-6411c1455933-attr-3-name" class="er entityLabel">name_surname</text><rect height="22" width="22.68768310546875" y="68" x="143.08529663085938" class="er attributeBoxOdd"/><text style="dominant-baseline: middle; font-size: 10.2px;" transform="translate(148.08529663085938,79)" y="0" x="0" id="text-entity-accounts-63517279-e5db-51fd-8103-6411c1455933-attr-3-key" class="er entityLabel"/><rect height="22" width="93.70228576660156" y="68" x="165.77297973632812" class="er attributeBoxOdd"/><text style="dominant-baseline: middle; font-size: 10.2px;" transform="translate(170.77297973632812,79)" y="0" x="0" id="text-entity-accounts-63517279-e5db-51fd-8103-6411c1455933-attr-3-comment" class="er entityLabel"/><rect height="22" width="63.70890808105469" y="90" x="0" class="er attributeBoxEven"/><text style="dominant-baseline: middle; font-size: 10.2px;" transform="translate(5,101)" y="0" x="0" id="text-entity-accounts-63517279-e5db-51fd-8103-6411c1455933-attr-4-type" class="er entityLabel">int</text><rect height="22" width="79.37638854980469" y="90" x="63.70890808105469" class="er attributeBoxEven"/><text style="dominant-baseline: middle; font-size: 10.2px;" transform="translate(68.70890808105469,101)" y="0" x="0" id="text-entity-accounts-63517279-e5db-51fd-8103-6411c1455933-attr-4-name" class="er entityLabel">balance</text><rect height="22" width="22.68768310546875" y="90" x="143.08529663085938" class="er attributeBoxEven"/><text style="dominant-baseline: middle; font-size: 10.2px;" transform="translate(148.08529663085938,101)" y="0" x="0" id="text-entity-accounts-63517279-e5db-51fd-8103-6411c1455933-attr-4-key" class="er entityLabel"/><rect height="22" width="93.70228576660156" y="90" x="165.77297973632812" class="er attributeBoxEven"/><text style="dominant-baseline: middle; font-size: 10.2px;" transform="translate(170.77297973632812,101)" y="0" x="0" id="text-entity-accounts-63517279-e5db-51fd-8103-6411c1455933-attr-4-comment" class="er entityLabel"/></g><g transform="translate(379.47528076171875,221 )" id="entity-typetransactions-9be0ab09-a8ce-54e5-a0f3-f205db048090"><rect height="90" width="204.26303100585938" y="0" x="0" class="er entityBox"/><text style="dominant-baseline: middle; text-anchor: middle; font-size: 12px;" transform="translate(102.13151550292969,12)" y="0" x="0" id="text-entity-typetransactions-9be0ab09-a8ce-54e5-a0f3-f205db048090" class="er entityLabel">typetransactions</text><rect height="22" width="63.70890808105469" y="24" x="0" class="er attributeBoxOdd"/><text style="dominant-baseline: middle; font-size: 10.2px;" transform="translate(5,35)" y="0" x="0" id="text-entity-typetransactions-9be0ab09-a8ce-54e5-a0f3-f205db048090-attr-1-type" class="er entityLabel">int</text><rect height="22" width="117.86643981933594" y="24" x="63.70890808105469" class="er attributeBoxOdd"/><text style="dominant-baseline: middle; font-size: 10.2px;" transform="translate(68.70890808105469,35)" y="0" x="0" id="text-entity-typetransactions-9be0ab09-a8ce-54e5-a0f3-f205db048090-attr-1-name" class="er entityLabel">id_typeTransactions</text><rect height="22" width="22.68768310546875" y="24" x="181.57534790039062" class="er attributeBoxOdd"/><text style="dominant-baseline: middle; font-size: 10.2px;" transform="translate(186.57534790039062,35)" y="0" x="0" id="text-entity-typetransactions-9be0ab09-a8ce-54e5-a0f3-f205db048090-attr-1-key" class="er entityLabel">PK</text><rect height="22" width="63.70890808105469" y="46" x="0" class="er attributeBoxEven"/><text style="dominant-baseline: middle; font-size: 10.2px;" transform="translate(5,57)" y="0" x="0" id="text-entity-typetransactions-9be0ab09-a8ce-54e5-a0f3-f205db048090-attr-2-type" class="er entityLabel">varchar(50)</text><rect height="22" width="117.86643981933594" y="46" x="63.70890808105469" class="er attributeBoxEven"/><text style="dominant-baseline: middle; font-size: 10.2px;" transform="translate(68.70890808105469,57)" y="0" x="0" id="text-entity-typetransactions-9be0ab09-a8ce-54e5-a0f3-f205db048090-attr-2-name" class="er entityLabel">name_typeTransactions</text><rect height="22" width="22.68768310546875" y="46" x="181.57534790039062" class="er attributeBoxEven"/><text style="dominant-baseline: middle; font-size: 10.2px;" transform="translate(186.57534790039062,57)" y="0" x="0" id="text-entity-typetransactions-9be0ab09-a8ce-54e5-a0f3-f205db048090-attr-2-key" class="er entityLabel"/><rect height="22" width="63.70890808105469" y="68" x="0" class="er attributeBoxOdd"/><text style="dominant-baseline: middle; font-size: 10.2px;" transform="translate(5,79)" y="0" x="0" id="text-entity-typetransactions-9be0ab09-a8ce-54e5-a0f3-f205db048090-attr-3-type" class="er entityLabel">bool</text><rect height="22" width="117.86643981933594" y="68" x="63.70890808105469" class="er attributeBoxOdd"/><text style="dominant-baseline: middle; font-size: 10.2px;" transform="translate(68.70890808105469,79)" y="0" x="0" id="text-entity-typetransactions-9be0ab09-a8ce-54e5-a0f3-f205db048090-attr-3-name" class="er entityLabel">status</text><rect height="22" width="22.68768310546875" y="68" x="181.57534790039062" class="er attributeBoxOdd"/><text style="dominant-baseline: middle; font-size: 10.2px;" transform="translate(186.57534790039062,79)" y="0" x="0" id="text-entity-typetransactions-9be0ab09-a8ce-54e5-a0f3-f205db048090-attr-3-key" class="er entityLabel"/></g><g transform="translate(138.09427642822266,422 )" id="entity-transactions-a3d7e83a-4348-578f-b8ec-7c8b8dbef31a"><rect height="112" width="355.15589904785156" y="0" x="0" class="er entityBox"/><text style="dominant-baseline: middle; text-anchor: middle; font-size: 12px;" transform="translate(177.57794952392578,12)" y="0" x="0" id="text-entity-transactions-a3d7e83a-4348-578f-b8ec-7c8b8dbef31a" class="er entityLabel">transactions</text><rect height="22" width="23.481719970703125" y="24" x="0" class="er attributeBoxOdd"/><text style="dominant-baseline: middle; font-size: 10.2px;" transform="translate(5,35)" y="0" x="0" id="text-entity-transactions-a3d7e83a-4348-578f-b8ec-7c8b8dbef31a-attr-1-type" class="er entityLabel">int</text><rect height="22" width="106.08763122558594" y="24" x="23.481719970703125" class="er attributeBoxOdd"/><text style="dominant-baseline: middle; font-size: 10.2px;" transform="translate(28.481719970703125,35)" y="0" x="0" id="text-entity-transactions-a3d7e83a-4348-578f-b8ec-7c8b8dbef31a-attr-1-name" class="er entityLabel">id_transaction</text><rect height="22" width="22.68768310546875" y="24" x="129.56935119628906" class="er attributeBoxOdd"/><text style="dominant-baseline: middle; font-size: 10.2px;" transform="translate(134.56935119628906,35)" y="0" x="0" id="text-entity-transactions-a3d7e83a-4348-578f-b8ec-7c8b8dbef31a-attr-1-key" class="er entityLabel">PK</text><rect height="22" width="202.89886474609375" y="24" x="152.2570343017578" class="er attributeBoxOdd"/><text style="dominant-baseline: middle; font-size: 10.2px;" transform="translate(157.2570343017578,35)" y="0" x="0" id="text-entity-transactions-a3d7e83a-4348-578f-b8ec-7c8b8dbef31a-attr-1-comment" class="er entityLabel"/><rect height="22" width="23.481719970703125" y="46" x="0" class="er attributeBoxEven"/><text style="dominant-baseline: middle; font-size: 10.2px;" transform="translate(5,57)" y="0" x="0" id="text-entity-transactions-a3d7e83a-4348-578f-b8ec-7c8b8dbef31a-attr-2-type" class="er entityLabel">int</text><rect height="22" width="106.08763122558594" y="46" x="23.481719970703125" class="er attributeBoxEven"/><text style="dominant-baseline: middle; font-size: 10.2px;" transform="translate(28.481719970703125,57)" y="0" x="0" id="text-entity-transactions-a3d7e83a-4348-578f-b8ec-7c8b8dbef31a-attr-2-name" class="er entityLabel">id_account</text><rect height="22" width="22.68768310546875" y="46" x="129.56935119628906" class="er attributeBoxEven"/><text style="dominant-baseline: middle; font-size: 10.2px;" transform="translate(134.56935119628906,57)" y="0" x="0" id="text-entity-transactions-a3d7e83a-4348-578f-b8ec-7c8b8dbef31a-attr-2-key" class="er entityLabel">FK</text><rect height="22" width="202.89886474609375" y="46" x="152.2570343017578" class="er attributeBoxEven"/><text style="dominant-baseline: middle; font-size: 10.2px;" transform="translate(157.2570343017578,57)" y="0" x="0" id="text-entity-transactions-a3d7e83a-4348-578f-b8ec-7c8b8dbef31a-attr-2-comment" class="er entityLabel">Ref:accounts(id_accouts)</text><rect height="22" width="23.481719970703125" y="68" x="0" class="er attributeBoxOdd"/><text style="dominant-baseline: middle; font-size: 10.2px;" transform="translate(5,79)" y="0" x="0" id="text-entity-transactions-a3d7e83a-4348-578f-b8ec-7c8b8dbef31a-attr-3-type" class="er entityLabel">int</text><rect height="22" width="106.08763122558594" y="68" x="23.481719970703125" class="er attributeBoxOdd"/><text style="dominant-baseline: middle; font-size: 10.2px;" transform="translate(28.481719970703125,79)" y="0" x="0" id="text-entity-transactions-a3d7e83a-4348-578f-b8ec-7c8b8dbef31a-attr-3-name" class="er entityLabel">id_type_transactions</text><rect height="22" width="22.68768310546875" y="68" x="129.56935119628906" class="er attributeBoxOdd"/><text style="dominant-baseline: middle; font-size: 10.2px;" transform="translate(134.56935119628906,79)" y="0" x="0" id="text-entity-transactions-a3d7e83a-4348-578f-b8ec-7c8b8dbef31a-attr-3-key" class="er entityLabel">FK</text><rect height="22" width="202.89886474609375" y="68" x="152.2570343017578" class="er attributeBoxOdd"/><text style="dominant-baseline: middle; font-size: 10.2px;" transform="translate(157.2570343017578,79)" y="0" x="0" id="text-entity-transactions-a3d7e83a-4348-578f-b8ec-7c8b8dbef31a-attr-3-comment" class="er entityLabel">Ref:typetransactions(id_typeTransactions)</text><rect height="22" width="23.481719970703125" y="90" x="0" class="er attributeBoxEven"/><text style="dominant-baseline: middle; font-size: 10.2px;" transform="translate(5,101)" y="0" x="0" id="text-entity-transactions-a3d7e83a-4348-578f-b8ec-7c8b8dbef31a-attr-4-type" class="er entityLabel">int</text><rect height="22" width="106.08763122558594" y="90" x="23.481719970703125" class="er attributeBoxEven"/><text style="dominant-baseline: middle; font-size: 10.2px;" transform="translate(28.481719970703125,101)" y="0" x="0" id="text-entity-transactions-a3d7e83a-4348-578f-b8ec-7c8b8dbef31a-attr-4-name" class="er entityLabel">amount</text><rect height="22" width="22.68768310546875" y="90" x="129.56935119628906" class="er attributeBoxEven"/><text style="dominant-baseline: middle; font-size: 10.2px;" transform="translate(134.56935119628906,101)" y="0" x="0" id="text-entity-transactions-a3d7e83a-4348-578f-b8ec-7c8b8dbef31a-attr-4-key" class="er entityLabel"/><rect height="22" width="202.89886474609375" y="90" x="152.2570343017578" class="er attributeBoxEven"/><text style="dominant-baseline: middle; font-size: 10.2px;" transform="translate(157.2570343017578,101)" y="0" x="0" id="text-entity-transactions-a3d7e83a-4348-578f-b8ec-7c8b8dbef31a-attr-4-comment" class="er entityLabel"/></g><rect height="14" width="40.310546875" y="153" x="129.58236694335938" class="er relationshipLabelBox"/><text style="text-anchor: middle; dominant-baseline: middle; font-size: 12px;" y="160" x="149.73764038085938" id="rel799" class="er relationshipLabel">id_card</text><rect height="14" width="59.140625" y="375.80242919921875" x="143.32171630859375" class="er relationshipLabelBox"/><text style="text-anchor: middle; dominant-baseline: middle; font-size: 12px;" y="382.80242919921875" x="172.89202880859375" id="rel800" class="er relationshipLabel">id_account</text><rect height="14" width="112.162109375" y="371.68896484375" x="405.5008544921875" class="er relationshipLabelBox"/><text style="text-anchor: middle; dominant-baseline: middle; font-size: 12px;" y="378.68896484375" x="461.5819091796875" id="rel801" class="er relationshipLabel">id_type_transactions</text></svg>